<svg xmlns="http://www.w3.org/2000/svg" width="32" height="32" viewBox="0 0 32 32">
    <path fill="#BC207C" fill-rule="evenodd" d="M16 0c8.837 0 16 7.163 16 16s-7.163 16-16 16S0 24.837 0 16 7.163 0 16 0zm.937 8.006h-2.133a39.26 39.26 0 0 0-2.104.047c-.851.039-1.432.174-1.941.372a3.92 3.92 0 0 0-1.417.922 3.92 3.92 0 0 0-.922 1.417c-.198.509-.333 1.09-.372 1.941-.032.711-.044 1.019-.047 2.358v1.879c.003 1.34.015 1.647.047 2.358.039.851.174 1.432.372 1.941.204.526.478.972.922 1.417.445.444.89.718 1.417.922.509.198 1.09.333 1.941.372.853.039 1.125.048 3.297.048s2.445-.01 3.298-.048c.851-.039 1.432-.174 1.941-.372a3.92 3.92 0 0 0 1.417-.922 3.92 3.92 0 0 0 .922-1.417c.198-.509.333-1.09.372-1.941.032-.711.044-1.019.047-2.358v-1.879a42.402 42.402 0 0 0-.047-2.358c-.039-.851-.174-1.432-.372-1.941a3.92 3.92 0 0 0-.922-1.417 3.92 3.92 0 0 0-1.417-.922c-.509-.198-1.09-.333-1.941-.372a42.401 42.401 0 0 0-2.358-.047zm-.017 1.44c1.314.004 1.606.015 2.31.047.779.035 1.202.166 1.484.275.373.145.64.318.92.598.28.28.453.547.598.92.11.282.24.705.275 1.485.032.703.043.995.046 2.31v1.844a41.268 41.268 0 0 1-.046 2.31c-.035.779-.166 1.202-.275 1.484-.145.374-.318.64-.598.92-.28.28-.547.453-.92.598-.282.11-.705.24-1.485.275-.843.039-1.096.047-3.232.047-2.135 0-2.388-.008-3.231-.047-.78-.035-1.203-.165-1.485-.275a2.478 2.478 0 0 1-.92-.598 2.478 2.478 0 0 1-.598-.92c-.11-.282-.24-.705-.275-1.485-.039-.843-.047-1.096-.047-3.231 0-2.136.008-2.389.047-3.232.035-.78.165-1.203.275-1.485.145-.373.318-.64.598-.92.28-.28.546-.453.92-.598.282-.11.705-.24 1.485-.275.703-.032.995-.043 2.31-.046zm-.923 2.45a4.107 4.107 0 1 0 0 8.213 4.107 4.107 0 0 0 0-8.213zm0 1.44a2.666 2.666 0 1 1 0 5.332 2.666 2.666 0 0 1 0-5.331zm4.27-2.562a.96.96 0 1 0 0 1.92.96.96 0 0 0 0-1.92z"/>
</svg>
