<svg xmlns="http://www.w3.org/2000/svg" width="48" height="36" viewBox="0 0 48 36">
    <path fill="#DBD5F4" fill-rule="evenodd" d="M48 2.101C48 .9 47.1 0 45.901 0H2.1C.899 0 0 .9 0 2.101V33.6C0 35.1.9 36 2.099 36h43.5c1.2 0 2.102-.9 2.102-2.101V2.1H48zM28.5 7c2.4 0 4.5 2.102 4.5 4.5 0 2.4-2.102 4.5-4.5 4.5-2.4 0-4.5-2.102-4.5-4.5C24 9.1 26.102 7 28.5 7zM42 28.85c0 .575-.6 1.148-1.199 1.148L7.501 30C6.6 30 6 29.425 6 28.564v-3.16c0-.574.3-.86.6-1.435l9-7.754c.3-.287.9-.287 1.2 0l10.799 6.317 7.5-3.445c.298-.286.9 0 1.198 0l5.1 4.307c.603 0 .603.289.603.575v4.881z"/>
</svg>
