<svg xmlns="http://www.w3.org/2000/svg" width="32" height="32" viewBox="0 0 32 32">
    <path fill="#1D9DEE" fill-rule="evenodd" d="M16 0c8.837 0 16 7.163 16 16s-7.163 16-16 16S0 24.837 0 16 7.163 0 16 0zm3.595 9.6c-1.74 0-3.152 1.447-3.152 3.231 0 .254.028.5.082.737-2.62-.135-4.942-1.421-6.496-3.376a3.283 3.283 0 0 0-.427 1.624c0 1.121.557 2.11 1.403 2.69a3.07 3.07 0 0 1-1.428-.405v.042c0 1.565 1.086 2.871 2.528 3.167a3.087 3.087 0 0 1-1.423.056c.4 1.284 1.564 2.218 2.944 2.244A6.225 6.225 0 0 1 8.96 20.95a8.762 8.762 0 0 0 4.83 1.451c5.797 0 8.967-4.924 8.967-9.194 0-.14-.003-.279-.01-.418a6.504 6.504 0 0 0 1.573-1.673 6.17 6.17 0 0 1-1.81.509c.65-.4 1.15-1.033 1.386-1.787-.61.37-1.283.639-2.001.784a3.112 3.112 0 0 0-2.3-1.021z"/>
</svg>
